<svg width="259" height="60" viewBox="0 0 259 60" fill="none" xmlns="http://www.w3.org/2000/svg">
<path d="M10.7994 33.8885C11.5856 31.4131 12.0815 28.926 13.0762 26.658C14.2592 23.9605 16.437 21.886 19.5802 22.2744C19.8669 22.3099 20.1725 22.22 20.4528 22.2742C21.0499 22.3896 21.6362 22.5615 22.2269 22.7102C22.0114 23.2506 21.9242 23.9085 21.5571 24.3099C20.3094 25.6735 18.9934 26.9792 17.6424 28.2415C16.8705 28.9627 16.788 29.5783 17.5623 30.316C18.3727 31.0881 19.1583 31.8865 19.9514 32.6766C20.5528 33.2759 21.0857 33.2487 21.6874 32.6205C23.0003 31.2496 24.3268 29.8874 25.7207 28.6009C26.1419 28.2122 26.803 28.0839 27.3543 27.8362C27.6043 28.4245 27.9831 28.9916 28.0833 29.6044C28.674 33.2189 25.339 37.4655 21.2688 37.8622C18.5642 38.1259 16.1444 39.3924 13.9516 41.0059C12.9265 41.7601 12.9622 42.3732 14.1325 42.8739C15.1769 43.3207 16.289 43.7348 17.405 43.859C19.1253 44.0503 19.6174 44.4291 19.6293 46.1747C19.633 46.7095 19.6299 47.2443 19.6299 47.9712C19.1208 48.0797 18.5681 48.1429 18.0546 48.3201C17.3485 48.5639 16.5098 48.7324 16.021 49.2247C15.2849 49.9662 14.5837 50.179 13.6468 49.8493C12.6592 49.5018 11.5658 49.3189 10.7177 48.7609C10.1858 48.411 9.98047 47.519 9.70198 46.84C9.38597 46.0696 9.38048 44.9964 8.8347 44.5319C7.68767 43.5557 8.21253 42.9153 8.92999 42.1794C10.4293 40.6415 11.9458 39.1203 13.4956 37.5513C13.0138 36.6123 12.506 36.8826 11.9484 37.4463C10.613 38.7962 9.24151 40.1114 7.93475 41.4883C7.27558 42.1829 6.8114 42.2672 5.99364 41.6074C5.35816 41.0946 4.41606 40.8074 3.58149 40.7298C1.91736 40.5751 0.474122 38.8601 0.356157 36.5484C0.308974 35.6238 0.0949174 34.7084 1.20561 33.9982C1.75021 33.65 1.75903 32.5295 2.1359 31.8259C2.35968 31.4081 2.77301 30.9786 3.20081 30.8142C3.67116 30.6334 4.34517 30.5711 4.76896 30.7822C5.33838 31.0657 5.97738 31.5749 6.1918 32.1379C6.8142 33.7719 7.23965 35.4811 7.74237 37.1608C7.943 37.1926 8.14362 37.2245 8.34425 37.2563C9.13947 36.1621 9.9347 35.068 10.7994 33.8885Z" fill="white"/>
<path d="M11.3834 10.7824C13.2182 9.85787 14.8608 9.47688 16.4025 11.2141C16.7636 11.621 17.611 11.6899 18.2475 11.7355C19.2125 11.8047 19.6569 12.2302 19.6352 13.185C19.6231 13.72 19.7609 14.3005 19.5939 14.7773C19.4475 15.1953 19.0035 15.764 18.6338 15.8105C12.2654 16.6115 7.01943 21.5479 6.1974 28.1692C5.96651 30.0289 4.36232 29.2501 3.3951 29.5524C2.51686 29.827 1.80357 29.1073 1.8474 28.1746C1.90829 26.879 1.42788 25.9442 0.449996 25.1863C0.336316 25.0983 0.217405 24.9937 0.152128 24.8698C-0.619895 23.4041 1.71503 19.3347 3.36491 19.3779C4.47859 19.4071 5.29313 19.0322 6.0236 18.2343C6.85129 17.3301 7.81841 16.547 8.58978 15.6008C9.00819 15.0876 9.22427 14.3649 9.39246 13.7013C9.69424 12.5106 9.7597 11.2064 11.3834 10.7824Z" fill="white"/>
<path d="M22.497 48.3119C21.5258 48.2858 20.564 48.2859 20.8305 47.0407C21.0574 45.9802 19.9017 44.4213 22.1793 44.0468C27.5391 43.1653 31.2109 39.9756 33.3638 35.0451C33.8157 34.0103 33.8862 32.8141 34.2577 31.7355C34.391 31.3485 34.8484 30.9084 35.2375 30.8109C35.9261 30.6383 36.7461 30.5132 37.3778 30.7401C37.8933 30.9252 38.2984 31.6061 38.6015 32.1512C39.0263 32.9155 39.1984 33.8352 39.6862 34.5457C40.2151 35.3162 40.6173 35.9864 40.1149 36.9029C39.4146 38.1804 39.5192 40.0171 37.6362 40.4661C37.3235 40.5406 36.9748 40.5159 36.6892 40.6423C35.8748 41.003 34.9894 41.2988 34.309 41.8422C33.4904 42.4959 32.7979 43.3352 32.1563 44.175C31.6131 44.8858 30.8132 45.7321 30.8507 46.4823C30.9164 47.7966 30.3661 48.4521 29.3715 48.9343C28.5156 49.3493 27.633 49.8426 26.7188 49.9589C26.056 50.0431 25.3038 49.6117 24.6251 49.3294C23.9354 49.0426 23.287 48.6567 22.497 48.3119Z" fill="white"/>
<path d="M29.7614 11.2323C30.1521 12.0203 30.4147 12.7618 30.7433 13.4726C31.1682 14.3915 31.5803 15.3282 32.1247 16.1755C32.4647 16.7046 33.0531 17.0688 33.5044 17.532C34.5689 18.6243 35.6023 19.4136 37.3658 19.4732C39.2726 19.5377 39.4281 21.6829 40.091 23.0922C40.5755 24.1222 40.1915 24.93 39.4479 25.778C38.9655 26.3282 38.6957 27.225 38.6713 27.9777C38.6403 28.9342 38.2635 29.28 37.4122 29.2973C36.6339 29.3131 35.8447 29.3742 35.0816 29.2656C34.7745 29.2219 34.3108 28.8018 34.2807 28.5149C33.9618 25.4797 32.7279 22.8053 30.8107 20.5332C28.8952 18.263 26.3568 16.8138 23.4211 16.1515C23.3282 16.1306 23.2252 16.158 23.13 16.1428C21.0136 15.8054 20.1552 14.4419 20.8533 12.3912C20.951 12.1042 21.4698 11.9295 21.8232 11.7671C22.6598 11.3825 23.4948 10.9771 24.367 10.692C25.1881 10.4236 26.0806 10.0773 26.8969 10.1681C27.8443 10.2736 28.7429 10.8181 29.7614 11.2323Z" fill="white"/>
<path d="M61.5698 39L57.4698 30.95L57.2948 30.35L56.9948 30.9L55.4198 32.925C55.2282 32.1833 55.1698 31.425 55.2448 30.65C55.3198 29.875 55.4907 29.1375 55.7573 28.4375C56.024 27.7292 56.3532 27.1083 56.7448 26.575L60.8698 20.825H64.7948L59.1948 28.1L65.6698 39H61.5698ZM50.4198 39V20.825H53.9948V39H50.4198ZM70.9444 39.325C70.1444 39.325 69.4528 39.15 68.8694 38.8C68.2944 38.4417 67.8486 37.975 67.5319 37.4C67.2236 36.825 67.0694 36.2083 67.0694 35.55C67.0694 34.8583 67.2736 34.2042 67.6819 33.5875C68.0903 32.9708 68.7903 32.45 69.7819 32.025C70.7819 31.5917 72.1611 31.3083 73.9194 31.175C73.8611 31.5667 73.7653 31.9292 73.6319 32.2625C73.4986 32.5875 73.3153 32.8583 73.0819 33.075C72.8569 33.2917 72.5694 33.4333 72.2194 33.5C71.8028 33.5667 71.4611 33.6833 71.1944 33.85C70.9278 34.0167 70.7319 34.2208 70.6069 34.4625C70.4819 34.6958 70.4194 34.95 70.4194 35.225C70.4194 35.6583 70.5736 36.0208 70.8819 36.3125C71.1903 36.6042 71.5611 36.75 71.9944 36.75C72.4694 36.75 72.9486 36.5875 73.4319 36.2625C73.9236 35.9292 74.3861 35.5083 74.8194 35V31.225C74.8194 30.3583 74.5778 29.6667 74.0944 29.15C73.6194 28.6333 72.9444 28.375 72.0694 28.375C71.6611 28.375 71.2194 28.4167 70.7444 28.5C70.2694 28.5833 69.7361 28.7333 69.1444 28.95L68.2944 26.75C69.0361 26.4083 69.7986 26.1667 70.5819 26.025C71.3736 25.875 72.0611 25.8 72.6444 25.8C74.4194 25.8 75.7861 26.2667 76.7444 27.2C77.7111 28.1333 78.1944 29.475 78.1944 31.225V35.85C78.1944 36.3083 78.2236 36.8 78.2819 37.325C78.3403 37.85 78.4444 38.4083 78.5944 39H76.0194C75.7944 38.875 75.6069 38.7 75.4569 38.475C75.3153 38.2417 75.1944 38 75.0944 37.75L75.0194 37.25L74.7194 37.675C73.9694 38.3583 73.3111 38.8042 72.7444 39.0125C72.1861 39.2208 71.5861 39.325 70.9444 39.325ZM81.4942 39V20.05H84.9692V39H81.4942ZM88.4249 39V26.075H91.9249V39H88.4249ZM90.1749 24.375C89.5999 24.375 89.1124 24.1792 88.7124 23.7875C88.3207 23.3875 88.1249 22.9 88.1249 22.325C88.1249 21.7333 88.3207 21.2375 88.7124 20.8375C89.1124 20.4292 89.5999 20.225 90.1749 20.225C90.7499 20.225 91.2332 20.4292 91.6249 20.8375C92.0249 21.2375 92.2249 21.7333 92.2249 22.325C92.2249 22.9 92.0249 23.3875 91.6249 23.7875C91.2332 24.1792 90.7499 24.375 90.1749 24.375ZM95.5567 39V20.05H99.0317V39H95.5567ZM107.908 39L114.433 20.825H117.933L124.458 39H120.758L116.258 25.475L116.058 24.55L115.833 25.525L113.708 32L113.408 32.5L113.783 32.45H115.683C116.167 32.45 116.571 32.5875 116.896 32.8625C117.229 33.1375 117.496 33.475 117.696 33.875C117.904 34.275 118.067 34.6583 118.183 35.025H112.758L111.433 39H107.908ZM130.325 39.325C129.75 39.325 129.196 39.1792 128.663 38.8875C128.129 38.5958 127.692 38.1542 127.35 37.5625C127.017 36.9625 126.85 36.2083 126.85 35.3V26.075H130.325V35.25C130.325 35.6583 130.409 36 130.575 36.275C130.75 36.5417 131.05 36.675 131.475 36.675C131.642 36.675 131.8 36.6542 131.95 36.6125C132.1 36.5625 132.292 36.5333 132.525 36.525C132.917 36.5 133.25 36.6708 133.525 37.0375C133.809 37.3958 134.067 37.775 134.3 38.175C133.475 38.6083 132.75 38.9083 132.125 39.075C131.5 39.2417 130.9 39.325 130.325 39.325ZM135.875 39C135.492 38.55 135.234 38.1042 135.1 37.6625C134.967 37.2208 134.9 36.75 134.9 36.25V26.075H138.4V35.85C138.4 36.3083 138.434 36.8 138.5 37.325C138.567 37.85 138.667 38.4083 138.8 39H135.875ZM148.032 39.325C146.449 39.325 145.236 38.8708 144.395 37.9625C143.553 37.0542 143.132 35.75 143.132 34.05V28.55H141.057V26.575L143.132 26.075V23L146.432 21.925V34.05C146.432 34.9 146.611 35.5625 146.97 36.0375C147.328 36.5125 147.799 36.75 148.382 36.75C148.624 36.75 148.899 36.725 149.207 36.675C149.516 36.625 149.882 36.525 150.307 36.375L151.032 38.65C150.407 38.8583 149.853 39.0208 149.37 39.1375C148.895 39.2625 148.449 39.325 148.032 39.325ZM149.782 28.55C149.299 28.55 148.891 28.4208 148.557 28.1625C148.224 27.9042 147.953 27.5833 147.745 27.2C147.545 26.8167 147.391 26.4417 147.282 26.075H150.907V28.55H149.782ZM159.459 39.325C158.284 39.325 157.188 39.0625 156.172 38.5375C155.155 38.0042 154.33 37.2333 153.697 36.225C153.072 35.2083 152.759 33.975 152.759 32.525C152.759 31.35 152.968 30.3375 153.384 29.4875C153.809 28.6292 154.359 27.925 155.034 27.375C155.709 26.825 156.434 26.4167 157.209 26.15C157.993 25.8833 158.743 25.75 159.459 25.75C160.784 25.75 161.947 26.0375 162.947 26.6125C163.955 27.1875 164.743 27.9875 165.309 29.0125C165.876 30.0292 166.159 31.2 166.159 32.525C166.159 33.5833 165.968 34.5333 165.584 35.375C165.201 36.2167 164.688 36.9333 164.047 37.525C163.405 38.1083 162.684 38.5542 161.884 38.8625C161.093 39.1708 160.284 39.325 159.459 39.325ZM159.459 36.775C160.109 36.775 160.655 36.5833 161.097 36.2C161.538 35.8167 161.872 35.3042 162.097 34.6625C162.322 34.0208 162.434 33.3083 162.434 32.525C162.434 31.75 162.322 31.0417 162.097 30.4C161.872 29.7583 161.538 29.25 161.097 28.875C160.655 28.4917 160.109 28.3 159.459 28.3C158.809 28.3 158.259 28.4917 157.809 28.875C157.368 29.25 157.03 29.7583 156.797 30.4C156.572 31.0417 156.459 31.75 156.459 32.525C156.459 33.775 156.73 34.7958 157.272 35.5875C157.822 36.3792 158.551 36.775 159.459 36.775ZM180.489 39.325C179.781 39.325 178.951 39.225 178.001 39.025C177.051 38.8333 176.006 38.475 174.864 37.95L175.814 35.625C176.714 36.05 177.56 36.3458 178.351 36.5125C179.143 36.6708 179.856 36.75 180.489 36.75C181.381 36.75 182.114 36.5167 182.689 36.05C183.272 35.5833 183.564 35.025 183.564 34.375C183.564 33.7667 183.36 33.2458 182.951 32.8125C182.543 32.3708 182.018 31.9708 181.376 31.6125C180.735 31.2458 180.051 30.875 179.326 30.5C178.601 30.125 177.918 29.7042 177.276 29.2375C176.635 28.7708 176.11 28.2167 175.701 27.575C175.293 26.9333 175.089 26.1583 175.089 25.25C175.089 24.1583 175.339 23.2625 175.839 22.5625C176.347 21.8625 177.018 21.3458 177.851 21.0125C178.685 20.6708 179.597 20.5 180.589 20.5C181.356 20.5 182.101 20.5542 182.826 20.6625C183.551 20.7625 184.439 20.9833 185.489 21.325L184.564 23.6C183.831 23.3833 183.16 23.2292 182.551 23.1375C181.943 23.0458 181.364 23 180.814 23C180.064 23 179.464 23.1833 179.014 23.55C178.564 23.9167 178.339 24.3833 178.339 24.95C178.339 25.5167 178.543 26.0125 178.951 26.4375C179.368 26.8542 179.897 27.2417 180.539 27.6C181.189 27.9583 181.876 28.3333 182.601 28.725C183.326 29.1167 184.01 29.5583 184.651 30.05C185.301 30.5417 185.831 31.1333 186.239 31.825C186.656 32.5083 186.864 33.3333 186.864 34.3C186.864 35.375 186.597 36.2875 186.064 37.0375C185.531 37.7792 184.785 38.3458 183.826 38.7375C182.868 39.1292 181.756 39.325 180.489 39.325ZM195.743 39.325C194.601 39.325 193.614 39.125 192.78 38.725C191.947 38.3167 191.259 37.775 190.718 37.1C190.184 36.4167 189.789 35.6625 189.53 34.8375C189.272 34.0042 189.143 33.1667 189.143 32.325C189.143 30.95 189.434 29.7708 190.018 28.7875C190.609 27.8042 191.401 27.0542 192.393 26.5375C193.384 26.0125 194.484 25.75 195.693 25.75C196.618 25.75 197.455 25.9333 198.205 26.3C198.964 26.6583 199.58 27.1667 200.055 27.825C200.539 28.4833 200.83 29.2625 200.93 30.1625C201.039 31.0625 200.909 32.05 200.543 33.125H193.543C193.718 32.55 193.98 32.0667 194.33 31.675C194.68 31.275 195.068 31.075 195.493 31.075H197.718C197.784 30.5667 197.739 30.0917 197.58 29.65C197.422 29.2083 197.164 28.8542 196.805 28.5875C196.455 28.3125 196.026 28.175 195.518 28.175C195.059 28.175 194.605 28.3125 194.155 28.5875C193.705 28.8625 193.33 29.2958 193.03 29.8875C192.739 30.4792 192.593 31.25 192.593 32.2C192.593 33.1583 192.739 33.9792 193.03 34.6625C193.33 35.3375 193.743 35.8542 194.268 36.2125C194.801 36.5708 195.418 36.75 196.118 36.75C196.693 36.75 197.264 36.6792 197.83 36.5375C198.397 36.3875 199.043 36.15 199.768 35.825L200.643 38.15C199.743 38.575 198.893 38.875 198.093 39.05C197.301 39.2333 196.518 39.325 195.743 39.325ZM203.779 39V29.225C203.779 28.7583 203.75 28.2625 203.691 27.7375C203.633 27.2125 203.529 26.6583 203.379 26.075H206.029C206.171 26.1833 206.321 26.4125 206.479 26.7625C206.637 27.1125 206.746 27.5 206.804 27.925L206.854 28.525L207.104 27.925C207.446 27.2583 207.883 26.7417 208.416 26.375C208.958 26.0083 209.496 25.825 210.029 25.825C210.296 25.825 210.558 25.85 210.816 25.9C211.075 25.95 211.354 26.025 211.654 26.125L211.254 28.95C210.921 28.85 210.641 28.7833 210.416 28.75C210.191 28.7167 209.979 28.7 209.779 28.7C209.212 28.7 208.725 28.8875 208.316 29.2625C207.908 29.6292 207.596 30.1333 207.379 30.775C207.162 31.4167 207.054 32.15 207.054 32.975V39H203.779ZM216.895 39L212.045 26.075H215.72L218.62 35.225L218.795 35.975L218.97 35.225L221.845 26.075H225.47L220.62 39H216.895ZM227.316 39V26.075H230.816V39H227.316ZM229.066 24.375C228.491 24.375 228.004 24.1792 227.604 23.7875C227.212 23.3875 227.016 22.9 227.016 22.325C227.016 21.7333 227.212 21.2375 227.604 20.8375C228.004 20.4292 228.491 20.225 229.066 20.225C229.641 20.225 230.125 20.4292 230.516 20.8375C230.916 21.2375 231.116 21.7333 231.116 22.325C231.116 22.9 230.916 23.3875 230.516 23.7875C230.125 24.1792 229.641 24.375 229.066 24.375ZM239.973 39.325C238.815 39.325 237.723 39.0917 236.698 38.625C235.682 38.1583 234.857 37.425 234.223 36.425C233.59 35.425 233.273 34.125 233.273 32.525C233.273 31.0167 233.59 29.7625 234.223 28.7625C234.857 27.7542 235.682 27 236.698 26.5C237.723 26 238.815 25.75 239.973 25.75C240.423 25.75 240.915 25.7958 241.448 25.8875C241.982 25.9708 242.498 26.1083 242.998 26.3L242.148 28.625C241.748 28.525 241.353 28.45 240.961 28.4C240.578 28.35 240.248 28.325 239.973 28.325C239.373 28.325 238.848 28.4958 238.398 28.8375C237.948 29.1708 237.598 29.6542 237.348 30.2875C237.098 30.9125 236.973 31.6583 236.973 32.525C236.973 33.4 237.098 34.1542 237.348 34.7875C237.598 35.4125 237.948 35.8958 238.398 36.2375C238.848 36.5792 239.373 36.75 239.973 36.75C240.323 36.75 240.698 36.7042 241.098 36.6125C241.498 36.5125 241.965 36.3583 242.498 36.15L243.348 38.45C242.698 38.75 242.086 38.9708 241.511 39.1125C240.936 39.2542 240.423 39.325 239.973 39.325ZM251.041 39.325C249.899 39.325 248.911 39.125 248.078 38.725C247.245 38.3167 246.557 37.775 246.016 37.1C245.482 36.4167 245.086 35.6625 244.828 34.8375C244.57 34.0042 244.441 33.1667 244.441 32.325C244.441 30.95 244.732 29.7708 245.316 28.7875C245.907 27.8042 246.699 27.0542 247.691 26.5375C248.682 26.0125 249.782 25.75 250.991 25.75C251.916 25.75 252.753 25.9333 253.503 26.3C254.261 26.6583 254.878 27.1667 255.353 27.825C255.836 28.4833 256.128 29.2625 256.228 30.1625C256.336 31.0625 256.207 32.05 255.841 33.125H248.841C249.016 32.55 249.278 32.0667 249.628 31.675C249.978 31.275 250.366 31.075 250.791 31.075H253.016C253.082 30.5667 253.036 30.0917 252.878 29.65C252.72 29.2083 252.461 28.8542 252.103 28.5875C251.753 28.3125 251.324 28.175 250.816 28.175C250.357 28.175 249.903 28.3125 249.453 28.5875C249.003 28.8625 248.628 29.2958 248.328 29.8875C248.036 30.4792 247.891 31.25 247.891 32.2C247.891 33.1583 248.036 33.9792 248.328 34.6625C248.628 35.3375 249.041 35.8542 249.566 36.2125C250.099 36.5708 250.716 36.75 251.416 36.75C251.991 36.75 252.561 36.6792 253.128 36.5375C253.695 36.3875 254.341 36.15 255.066 35.825L255.941 38.15C255.041 38.575 254.191 38.875 253.391 39.05C252.599 39.2333 251.816 39.325 251.041 39.325Z" fill="white"/>
</svg>
