<svg width="41" height="40" viewBox="0 0 41 40" fill="none" xmlns="http://www.w3.org/2000/svg">
<path d="M10.7994 23.8885C11.5856 21.4131 12.0815 18.926 13.0762 16.658C14.2592 13.9605 16.437 11.886 19.5802 12.2744C19.8669 12.3099 20.1725 12.22 20.4528 12.2742C21.0499 12.3896 21.6362 12.5615 22.2269 12.7102C22.0114 13.2506 21.9242 13.9085 21.5571 14.3099C20.3094 15.6735 18.9934 16.9792 17.6424 18.2415C16.8705 18.9627 16.788 19.5783 17.5623 20.316C18.3727 21.0881 19.1583 21.8865 19.9514 22.6766C20.5528 23.2759 21.0857 23.2487 21.6874 22.6205C23.0003 21.2496 24.3268 19.8874 25.7207 18.6009C26.1419 18.2122 26.803 18.0839 27.3543 17.8362C27.6043 18.4245 27.9831 18.9916 28.0833 19.6044C28.674 23.2189 25.339 27.4655 21.2688 27.8622C18.5642 28.1259 16.1444 29.3924 13.9516 31.0059C12.9265 31.7601 12.9622 32.3732 14.1325 32.8739C15.1769 33.3207 16.289 33.7348 17.405 33.859C19.1253 34.0503 19.6174 34.4291 19.6293 36.1747C19.633 36.7095 19.6299 37.2443 19.6299 37.9712C19.1208 38.0797 18.5681 38.1429 18.0546 38.3201C17.3485 38.5639 16.5098 38.7324 16.021 39.2247C15.2849 39.9662 14.5837 40.179 13.6468 39.8493C12.6592 39.5018 11.5658 39.3189 10.7177 38.7609C10.1858 38.411 9.98047 37.519 9.70198 36.84C9.38597 36.0696 9.38048 34.9964 8.8347 34.5319C7.68767 33.5557 8.21253 32.9153 8.92999 32.1794C10.4293 30.6415 11.9458 29.1203 13.4956 27.5513C13.0138 26.6123 12.506 26.8826 11.9484 27.4463C10.613 28.7962 9.24151 30.1114 7.93475 31.4883C7.27558 32.1829 6.8114 32.2672 5.99364 31.6074C5.35816 31.0946 4.41606 30.8074 3.58149 30.7298C1.91736 30.5751 0.474122 28.8601 0.356157 26.5484C0.308974 25.6238 0.0949174 24.7084 1.20561 23.9982C1.75021 23.65 1.75903 22.5295 2.1359 21.8259C2.35968 21.4081 2.77301 20.9786 3.20081 20.8142C3.67116 20.6334 4.34517 20.5711 4.76896 20.7822C5.33838 21.0657 5.97738 21.5749 6.1918 22.1379C6.8142 23.7719 7.23965 25.4811 7.74237 27.1608C7.943 27.1926 8.14362 27.2245 8.34425 27.2563C9.13947 26.1621 9.9347 25.068 10.7994 23.8885Z" fill="white"/>
<path d="M11.3834 0.782426C13.2182 -0.142134 14.8608 -0.523123 16.4025 1.21407C16.7636 1.62095 17.611 1.68988 18.2475 1.7355C19.2125 1.80468 19.6569 2.23024 19.6352 3.18499C19.6231 3.72003 19.7609 4.30055 19.5939 4.77733C19.4475 5.19531 19.0035 5.76404 18.6338 5.81054C12.2654 6.61152 7.01943 11.5479 6.1974 18.1692C5.96651 20.0289 4.36232 19.2501 3.3951 19.5524C2.51686 19.827 1.80357 19.1073 1.8474 18.1746C1.90829 16.879 1.42788 15.9442 0.449996 15.1863C0.336316 15.0983 0.217405 14.9937 0.152128 14.8698C-0.619895 13.4041 1.71503 9.33467 3.36491 9.37792C4.47859 9.40711 5.29313 9.03223 6.0236 8.23429C6.85129 7.33014 7.81841 6.54696 8.58978 5.60083C9.00819 5.08762 9.22427 4.36487 9.39246 3.7013C9.69424 2.5106 9.7597 1.20643 11.3834 0.782426Z" fill="white"/>
<path d="M22.497 38.3119C21.5258 38.2858 20.564 38.2859 20.8305 37.0407C21.0574 35.9802 19.9017 34.4213 22.1793 34.0468C27.5391 33.1653 31.2109 29.9756 33.3638 25.0451C33.8157 24.0103 33.8862 22.8141 34.2577 21.7355C34.391 21.3485 34.8484 20.9084 35.2375 20.8109C35.9261 20.6383 36.7461 20.5132 37.3778 20.7401C37.8933 20.9252 38.2984 21.6061 38.6015 22.1512C39.0263 22.9155 39.1984 23.8352 39.6862 24.5457C40.2151 25.3162 40.6173 25.9864 40.1149 26.9029C39.4146 28.1804 39.5192 30.0171 37.6362 30.4661C37.3235 30.5406 36.9748 30.5159 36.6892 30.6423C35.8748 31.003 34.9894 31.2988 34.309 31.8422C33.4904 32.4959 32.7979 33.3352 32.1563 34.175C31.6131 34.8858 30.8132 35.7321 30.8507 36.4823C30.9164 37.7966 30.3661 38.4521 29.3715 38.9343C28.5156 39.3493 27.633 39.8426 26.7188 39.9589C26.056 40.0431 25.3038 39.6117 24.6251 39.3294C23.9354 39.0426 23.287 38.6567 22.497 38.3119Z" fill="white"/>
<path d="M29.7614 1.23227C30.1521 2.02033 30.4147 2.7618 30.7433 3.47265C31.1682 4.39153 31.5803 5.32815 32.1247 6.1755C32.4647 6.70457 33.0531 7.06885 33.5044 7.532C34.5689 8.62427 35.6023 9.41363 37.3658 9.47323C39.2726 9.53768 39.4281 11.6829 40.091 13.0922C40.5755 14.1222 40.1915 14.93 39.4479 15.778C38.9655 16.3282 38.6957 17.225 38.6713 17.9777C38.6403 18.9342 38.2635 19.28 37.4122 19.2973C36.6339 19.3131 35.8447 19.3742 35.0816 19.2656C34.7745 19.2219 34.3108 18.8018 34.2807 18.5149C33.9618 15.4797 32.7279 12.8053 30.8107 10.5332C28.8952 8.26302 26.3568 6.81385 23.4211 6.15153C23.3282 6.13056 23.2252 6.15797 23.13 6.1428C21.0136 5.80538 20.1552 4.4419 20.8533 2.39122C20.951 2.10417 21.4698 1.92953 21.8232 1.76709C22.6598 1.38246 23.4948 0.977131 24.367 0.692039C25.1881 0.423622 26.0806 0.0772504 26.8969 0.168124C27.8443 0.273588 28.7429 0.81811 29.7614 1.23227Z" fill="white"/>
</svg>
