<svg width="259" height="60" viewBox="0 0 259 60" fill="none" xmlns="http://www.w3.org/2000/svg">
<path d="M10.8091 33.8885C11.596 31.4131 12.0923 28.926 13.0879 26.658C14.2719 23.9605 16.4517 21.886 19.5977 22.2744C19.8847 22.3099 20.1906 22.22 20.4711 22.2742C21.0687 22.3896 21.6555 22.5615 22.2468 22.7102C22.0311 23.2506 21.9439 23.9085 21.5763 24.3099C20.3276 25.6735 19.0104 26.9792 17.6581 28.2415C16.8856 28.9627 16.803 29.5783 17.578 30.316C18.3891 31.0881 19.1754 31.8865 19.9692 32.6766C20.5712 33.2759 21.1046 33.2487 21.7068 32.6205C23.0209 31.2496 24.3485 29.8874 25.7437 28.6009C26.1653 28.2122 26.827 28.0839 27.3787 27.8362C27.629 28.4245 28.0082 28.9916 28.1084 29.6044C28.6997 33.2189 25.3617 37.4655 21.2878 37.8622C18.5808 38.1259 16.1588 39.3924 13.9641 41.0059C12.9381 41.7601 12.9738 42.3732 14.1451 42.8739C15.1905 43.3207 16.3035 43.7348 17.4206 43.859C19.1424 44.0503 19.6349 44.4291 19.6469 46.1747C19.6505 46.7095 19.6474 47.2443 19.6474 47.9712C19.1379 48.0797 18.5847 48.1429 18.0707 48.3201C17.364 48.5639 16.5245 48.7324 16.0354 49.2247C15.2985 49.9662 14.5967 50.179 13.659 49.8493C12.6706 49.5018 11.5762 49.3189 10.7273 48.7609C10.1949 48.411 9.9894 47.519 9.71066 46.84C9.39437 46.0696 9.38888 44.9964 8.8426 44.5319C7.69454 43.5557 8.21988 42.9153 8.93797 42.1794C10.4387 40.6415 11.9565 39.1203 13.5076 37.5513C13.0255 36.6123 12.5172 36.8826 11.9591 37.4463C10.6224 38.7962 9.24978 40.1114 7.94185 41.4883C7.28209 42.1829 6.81749 42.2672 5.999 41.6074C5.36296 41.0946 4.42001 40.8074 3.58469 40.7298C1.91907 40.5751 0.474545 38.8601 0.356475 36.5484C0.309249 35.6238 0.095001 34.7084 1.20669 33.9982C1.75178 33.65 1.7606 32.5295 2.13781 31.8259C2.36179 31.4081 2.77549 30.9786 3.20367 30.8142C3.67444 30.6334 4.34905 30.5711 4.77323 30.7822C5.34316 31.0657 5.98272 31.5749 6.19734 32.1379C6.8203 33.7719 7.24613 35.4811 7.7493 37.1608C7.9501 37.1926 8.15091 37.2245 8.35171 37.2563C9.14765 36.1621 9.94359 35.068 10.8091 33.8885Z" fill="#525E6B"/>
<path d="M11.3936 10.7824C13.23 9.85787 14.8741 9.47688 16.4172 11.2141C16.7786 11.621 17.6268 11.6899 18.2638 11.7355C19.2297 11.8047 19.6745 12.2302 19.6528 13.185C19.6407 13.72 19.7785 14.3005 19.6114 14.7773C19.4649 15.1953 19.0205 15.764 18.6505 15.8105C12.2764 16.6115 7.02571 21.5479 6.20294 28.1692C5.97185 30.0289 4.36623 29.2501 3.39814 29.5524C2.51911 29.827 1.80518 29.1073 1.84905 28.1746C1.91 26.879 1.42916 25.9442 0.450399 25.1863C0.336617 25.0983 0.217599 24.9937 0.152264 24.8698C-0.620449 23.4041 1.71657 19.3347 3.36792 19.3779C4.4826 19.4071 5.29787 19.0322 6.02899 18.2343C6.85742 17.3301 7.82541 16.547 8.59747 15.6008C9.01625 15.0876 9.23252 14.3649 9.40086 13.7013C9.70292 12.5106 9.76844 11.2064 11.3936 10.7824Z" fill="#BBBEC5"/>
<path d="M22.5171 48.3119C21.545 48.2858 20.5824 48.2859 20.8491 47.0407C21.0763 45.9802 19.9195 44.4213 22.1991 44.0468C27.5638 43.1653 31.2388 39.9756 33.3937 35.0451C33.846 34.0103 33.9165 32.8141 34.2884 31.7355C34.4218 31.3485 34.8796 30.9084 35.269 30.8109C35.9583 30.6383 36.779 30.5132 37.4112 30.7401C37.9272 30.9252 38.3327 31.6061 38.636 32.1512C39.0612 32.9155 39.2335 33.8352 39.7217 34.5457C40.2511 35.3162 40.6537 35.9864 40.1508 36.9029C39.4498 38.1804 39.5545 40.0171 37.6699 40.4661C37.3569 40.5406 37.0078 40.5159 36.722 40.6423C35.9069 41.003 35.0207 41.2988 34.3397 41.8422C33.5204 42.4959 32.8272 43.3352 32.185 44.175C31.6414 44.8858 30.8408 45.7321 30.8783 46.4823C30.944 47.7966 30.3933 48.4521 29.3978 48.9343C28.5411 49.3493 27.6578 49.8426 26.7427 49.9589C26.0793 50.0431 25.3265 49.6117 24.6471 49.3294C23.9569 49.0426 23.3078 48.6567 22.5171 48.3119Z" fill="#727E89"/>
<path d="M29.788 11.2323C30.179 12.0203 30.4419 12.7618 30.7708 13.4726C31.1961 14.3915 31.6086 15.3282 32.1535 16.1755C32.4937 16.7046 33.0826 17.0688 33.5344 17.532C34.5998 18.6243 35.6341 19.4136 37.3992 19.4732C39.3078 19.5377 39.4634 21.6829 40.1269 23.0922C40.6118 24.1222 40.2274 24.93 39.4832 25.778C39.0003 26.3282 38.7303 27.225 38.7059 27.9777C38.6749 28.9342 38.2977 29.28 37.4456 29.2973C36.6667 29.3131 35.8768 29.3742 35.113 29.2656C34.8056 29.2219 34.3415 28.8018 34.3113 28.5149C33.9922 25.4797 32.7572 22.8053 30.8383 20.5332C28.9211 18.263 26.3804 16.8138 23.4421 16.1515C23.3491 16.1306 23.2459 16.158 23.1507 16.1428C21.0324 15.8054 20.1733 14.4419 20.872 12.3912C20.9698 12.1042 21.489 11.9295 21.8427 11.7671C22.6801 11.3825 23.5158 10.9771 24.3888 10.692C25.2107 10.4236 26.1039 10.0773 26.921 10.1681C27.8692 10.2736 28.7686 10.8181 29.788 11.2323Z" fill="#969FA6"/>
<path d="M61.6059 39L57.5059 30.95L57.3309 30.35L57.0309 30.9L55.4559 32.925C55.2643 32.1833 55.2059 31.425 55.2809 30.65C55.3559 29.875 55.5268 29.1375 55.7934 28.4375C56.0601 27.7292 56.3893 27.1083 56.7809 26.575L60.9059 20.825H64.8309L59.2309 28.1L65.7059 39H61.6059ZM50.4559 39V20.825H54.0309V39H50.4559ZM70.9805 39.325C70.1805 39.325 69.4889 39.15 68.9055 38.8C68.3305 38.4417 67.8847 37.975 67.568 37.4C67.2597 36.825 67.1055 36.2083 67.1055 35.55C67.1055 34.8583 67.3097 34.2042 67.718 33.5875C68.1264 32.9708 68.8264 32.45 69.818 32.025C70.818 31.5917 72.1972 31.3083 73.9555 31.175C73.8972 31.5667 73.8014 31.9292 73.668 32.2625C73.5347 32.5875 73.3514 32.8583 73.118 33.075C72.893 33.2917 72.6055 33.4333 72.2555 33.5C71.8389 33.5667 71.4972 33.6833 71.2305 33.85C70.9639 34.0167 70.768 34.2208 70.643 34.4625C70.518 34.6958 70.4555 34.95 70.4555 35.225C70.4555 35.6583 70.6097 36.0208 70.918 36.3125C71.2264 36.6042 71.5972 36.75 72.0305 36.75C72.5055 36.75 72.9847 36.5875 73.468 36.2625C73.9597 35.9292 74.4222 35.5083 74.8555 35V31.225C74.8555 30.3583 74.6139 29.6667 74.1305 29.15C73.6555 28.6333 72.9805 28.375 72.1055 28.375C71.6972 28.375 71.2555 28.4167 70.7805 28.5C70.3055 28.5833 69.7722 28.7333 69.1805 28.95L68.3305 26.75C69.0722 26.4083 69.8347 26.1667 70.618 26.025C71.4097 25.875 72.0972 25.8 72.6805 25.8C74.4555 25.8 75.8222 26.2667 76.7805 27.2C77.7472 28.1333 78.2305 29.475 78.2305 31.225V35.85C78.2305 36.3083 78.2597 36.8 78.318 37.325C78.3764 37.85 78.4805 38.4083 78.6305 39H76.0555C75.8305 38.875 75.643 38.7 75.493 38.475C75.3514 38.2417 75.2305 38 75.1305 37.75L75.0555 37.25L74.7555 37.675C74.0055 38.3583 73.3472 38.8042 72.7805 39.0125C72.2222 39.2208 71.6222 39.325 70.9805 39.325ZM81.5303 39V20.05H85.0053V39H81.5303ZM88.461 39V26.075H91.961V39H88.461ZM90.211 24.375C89.636 24.375 89.1485 24.1792 88.7485 23.7875C88.3568 23.3875 88.161 22.9 88.161 22.325C88.161 21.7333 88.3568 21.2375 88.7485 20.8375C89.1485 20.4292 89.636 20.225 90.211 20.225C90.786 20.225 91.2693 20.4292 91.661 20.8375C92.061 21.2375 92.261 21.7333 92.261 22.325C92.261 22.9 92.061 23.3875 91.661 23.7875C91.2693 24.1792 90.786 24.375 90.211 24.375ZM95.5928 39V20.05H99.0678V39H95.5928ZM107.944 39L114.469 20.825H117.969L124.494 39H120.794L116.294 25.475L116.094 24.55L115.869 25.525L113.744 32L113.444 32.5L113.819 32.45H115.719C116.203 32.45 116.607 32.5875 116.932 32.8625C117.265 33.1375 117.532 33.475 117.732 33.875C117.94 34.275 118.103 34.6583 118.219 35.025H112.794L111.469 39H107.944ZM130.361 39.325C129.786 39.325 129.232 39.1792 128.699 38.8875C128.166 38.5958 127.728 38.1542 127.386 37.5625C127.053 36.9625 126.886 36.2083 126.886 35.3V26.075H130.361V35.25C130.361 35.6583 130.445 36 130.611 36.275C130.786 36.5417 131.086 36.675 131.511 36.675C131.678 36.675 131.836 36.6542 131.986 36.6125C132.136 36.5625 132.328 36.5333 132.561 36.525C132.953 36.5 133.286 36.6708 133.561 37.0375C133.845 37.3958 134.103 37.775 134.336 38.175C133.511 38.6083 132.786 38.9083 132.161 39.075C131.536 39.2417 130.936 39.325 130.361 39.325ZM135.911 39C135.528 38.55 135.27 38.1042 135.136 37.6625C135.003 37.2208 134.936 36.75 134.936 36.25V26.075H138.436V35.85C138.436 36.3083 138.47 36.8 138.536 37.325C138.603 37.85 138.703 38.4083 138.836 39H135.911ZM148.068 39.325C146.485 39.325 145.273 38.8708 144.431 37.9625C143.589 37.0542 143.168 35.75 143.168 34.05V28.55H141.093V26.575L143.168 26.075V23L146.468 21.925V34.05C146.468 34.9 146.648 35.5625 147.006 36.0375C147.364 36.5125 147.835 36.75 148.418 36.75C148.66 36.75 148.935 36.725 149.243 36.675C149.552 36.625 149.918 36.525 150.343 36.375L151.068 38.65C150.443 38.8583 149.889 39.0208 149.406 39.1375C148.931 39.2625 148.485 39.325 148.068 39.325ZM149.818 28.55C149.335 28.55 148.927 28.4208 148.593 28.1625C148.26 27.9042 147.989 27.5833 147.781 27.2C147.581 26.8167 147.427 26.4417 147.318 26.075H150.943V28.55H149.818ZM159.495 39.325C158.32 39.325 157.225 39.0625 156.208 38.5375C155.191 38.0042 154.366 37.2333 153.733 36.225C153.108 35.2083 152.795 33.975 152.795 32.525C152.795 31.35 153.004 30.3375 153.42 29.4875C153.845 28.6292 154.395 27.925 155.07 27.375C155.745 26.825 156.47 26.4167 157.245 26.15C158.029 25.8833 158.779 25.75 159.495 25.75C160.82 25.75 161.983 26.0375 162.983 26.6125C163.991 27.1875 164.779 27.9875 165.345 29.0125C165.912 30.0292 166.195 31.2 166.195 32.525C166.195 33.5833 166.004 34.5333 165.62 35.375C165.237 36.2167 164.725 36.9333 164.083 37.525C163.441 38.1083 162.72 38.5542 161.92 38.8625C161.129 39.1708 160.32 39.325 159.495 39.325ZM159.495 36.775C160.145 36.775 160.691 36.5833 161.133 36.2C161.575 35.8167 161.908 35.3042 162.133 34.6625C162.358 34.0208 162.47 33.3083 162.47 32.525C162.47 31.75 162.358 31.0417 162.133 30.4C161.908 29.7583 161.575 29.25 161.133 28.875C160.691 28.4917 160.145 28.3 159.495 28.3C158.845 28.3 158.295 28.4917 157.845 28.875C157.404 29.25 157.066 29.7583 156.833 30.4C156.608 31.0417 156.495 31.75 156.495 32.525C156.495 33.775 156.766 34.7958 157.308 35.5875C157.858 36.3792 158.587 36.775 159.495 36.775ZM180.525 39.325C179.817 39.325 178.988 39.225 178.038 39.025C177.088 38.8333 176.042 38.475 174.9 37.95L175.85 35.625C176.75 36.05 177.596 36.3458 178.388 36.5125C179.179 36.6708 179.892 36.75 180.525 36.75C181.417 36.75 182.15 36.5167 182.725 36.05C183.308 35.5833 183.6 35.025 183.6 34.375C183.6 33.7667 183.396 33.2458 182.988 32.8125C182.579 32.3708 182.054 31.9708 181.413 31.6125C180.771 31.2458 180.088 30.875 179.363 30.5C178.638 30.125 177.954 29.7042 177.313 29.2375C176.671 28.7708 176.146 28.2167 175.738 27.575C175.329 26.9333 175.125 26.1583 175.125 25.25C175.125 24.1583 175.375 23.2625 175.875 22.5625C176.383 21.8625 177.054 21.3458 177.888 21.0125C178.721 20.6708 179.633 20.5 180.625 20.5C181.392 20.5 182.138 20.5542 182.863 20.6625C183.588 20.7625 184.475 20.9833 185.525 21.325L184.6 23.6C183.867 23.3833 183.196 23.2292 182.588 23.1375C181.979 23.0458 181.4 23 180.85 23C180.1 23 179.5 23.1833 179.05 23.55C178.6 23.9167 178.375 24.3833 178.375 24.95C178.375 25.5167 178.579 26.0125 178.988 26.4375C179.404 26.8542 179.933 27.2417 180.575 27.6C181.225 27.9583 181.913 28.3333 182.638 28.725C183.363 29.1167 184.046 29.5583 184.688 30.05C185.338 30.5417 185.867 31.1333 186.275 31.825C186.692 32.5083 186.9 33.3333 186.9 34.3C186.9 35.375 186.633 36.2875 186.1 37.0375C185.567 37.7792 184.821 38.3458 183.863 38.7375C182.904 39.1292 181.792 39.325 180.525 39.325ZM195.779 39.325C194.637 39.325 193.65 39.125 192.816 38.725C191.983 38.3167 191.295 37.775 190.754 37.1C190.22 36.4167 189.825 35.6625 189.566 34.8375C189.308 34.0042 189.179 33.1667 189.179 32.325C189.179 30.95 189.47 29.7708 190.054 28.7875C190.645 27.8042 191.437 27.0542 192.429 26.5375C193.42 26.0125 194.52 25.75 195.729 25.75C196.654 25.75 197.491 25.9333 198.241 26.3C199 26.6583 199.616 27.1667 200.091 27.825C200.575 28.4833 200.866 29.2625 200.966 30.1625C201.075 31.0625 200.945 32.05 200.579 33.125H193.579C193.754 32.55 194.016 32.0667 194.366 31.675C194.716 31.275 195.104 31.075 195.529 31.075H197.754C197.82 30.5667 197.775 30.0917 197.616 29.65C197.458 29.2083 197.2 28.8542 196.841 28.5875C196.491 28.3125 196.062 28.175 195.554 28.175C195.095 28.175 194.641 28.3125 194.191 28.5875C193.741 28.8625 193.366 29.2958 193.066 29.8875C192.775 30.4792 192.629 31.25 192.629 32.2C192.629 33.1583 192.775 33.9792 193.066 34.6625C193.366 35.3375 193.779 35.8542 194.304 36.2125C194.837 36.5708 195.454 36.75 196.154 36.75C196.729 36.75 197.3 36.6792 197.866 36.5375C198.433 36.3875 199.079 36.15 199.804 35.825L200.679 38.15C199.779 38.575 198.929 38.875 198.129 39.05C197.337 39.2333 196.554 39.325 195.779 39.325ZM203.815 39V29.225C203.815 28.7583 203.786 28.2625 203.728 27.7375C203.669 27.2125 203.565 26.6583 203.415 26.075H206.065C206.207 26.1833 206.357 26.4125 206.515 26.7625C206.673 27.1125 206.782 27.5 206.84 27.925L206.89 28.525L207.14 27.925C207.482 27.2583 207.919 26.7417 208.453 26.375C208.994 26.0083 209.532 25.825 210.065 25.825C210.332 25.825 210.594 25.85 210.853 25.9C211.111 25.95 211.39 26.025 211.69 26.125L211.29 28.95C210.957 28.85 210.678 28.7833 210.453 28.75C210.228 28.7167 210.015 28.7 209.815 28.7C209.248 28.7 208.761 28.8875 208.353 29.2625C207.944 29.6292 207.632 30.1333 207.415 30.775C207.198 31.4167 207.09 32.15 207.09 32.975V39H203.815ZM216.931 39L212.081 26.075H215.756L218.656 35.225L218.831 35.975L219.006 35.225L221.881 26.075H225.506L220.656 39H216.931ZM227.353 39V26.075H230.853V39H227.353ZM229.103 24.375C228.528 24.375 228.04 24.1792 227.64 23.7875C227.248 23.3875 227.053 22.9 227.053 22.325C227.053 21.7333 227.248 21.2375 227.64 20.8375C228.04 20.4292 228.528 20.225 229.103 20.225C229.678 20.225 230.161 20.4292 230.553 20.8375C230.953 21.2375 231.153 21.7333 231.153 22.325C231.153 22.9 230.953 23.3875 230.553 23.7875C230.161 24.1792 229.678 24.375 229.103 24.375ZM240.009 39.325C238.851 39.325 237.759 39.0917 236.734 38.625C235.718 38.1583 234.893 37.425 234.259 36.425C233.626 35.425 233.309 34.125 233.309 32.525C233.309 31.0167 233.626 29.7625 234.259 28.7625C234.893 27.7542 235.718 27 236.734 26.5C237.759 26 238.851 25.75 240.009 25.75C240.459 25.75 240.951 25.7958 241.484 25.8875C242.018 25.9708 242.534 26.1083 243.034 26.3L242.184 28.625C241.784 28.525 241.389 28.45 240.997 28.4C240.614 28.35 240.284 28.325 240.009 28.325C239.409 28.325 238.884 28.4958 238.434 28.8375C237.984 29.1708 237.634 29.6542 237.384 30.2875C237.134 30.9125 237.009 31.6583 237.009 32.525C237.009 33.4 237.134 34.1542 237.384 34.7875C237.634 35.4125 237.984 35.8958 238.434 36.2375C238.884 36.5792 239.409 36.75 240.009 36.75C240.359 36.75 240.734 36.7042 241.134 36.6125C241.534 36.5125 242.001 36.3583 242.534 36.15L243.384 38.45C242.734 38.75 242.122 38.9708 241.547 39.1125C240.972 39.2542 240.459 39.325 240.009 39.325ZM251.077 39.325C249.935 39.325 248.947 39.125 248.114 38.725C247.281 38.3167 246.593 37.775 246.052 37.1C245.518 36.4167 245.122 35.6625 244.864 34.8375C244.606 34.0042 244.477 33.1667 244.477 32.325C244.477 30.95 244.768 29.7708 245.352 28.7875C245.943 27.8042 246.735 27.0542 247.727 26.5375C248.718 26.0125 249.818 25.75 251.027 25.75C251.952 25.75 252.789 25.9333 253.539 26.3C254.297 26.6583 254.914 27.1667 255.389 27.825C255.872 28.4833 256.164 29.2625 256.264 30.1625C256.372 31.0625 256.243 32.05 255.877 33.125H248.877C249.052 32.55 249.314 32.0667 249.664 31.675C250.014 31.275 250.402 31.075 250.827 31.075H253.052C253.118 30.5667 253.072 30.0917 252.914 29.65C252.756 29.2083 252.497 28.8542 252.139 28.5875C251.789 28.3125 251.36 28.175 250.852 28.175C250.393 28.175 249.939 28.3125 249.489 28.5875C249.039 28.8625 248.664 29.2958 248.364 29.8875C248.072 30.4792 247.927 31.25 247.927 32.2C247.927 33.1583 248.072 33.9792 248.364 34.6625C248.664 35.3375 249.077 35.8542 249.602 36.2125C250.135 36.5708 250.752 36.75 251.452 36.75C252.027 36.75 252.597 36.6792 253.164 36.5375C253.731 36.3875 254.377 36.15 255.102 35.825L255.977 38.15C255.077 38.575 254.227 38.875 253.427 39.05C252.635 39.2333 251.852 39.325 251.077 39.325Z" fill="#4A535C"/>
</svg>
